<?xml version="1.0" encoding="UTF-8"?>
<!DOCTYPE svg PUBLIC "-//W3C//DTD SVG 1.1//EN" "http://www.w3.org/Graphics/SVG/1.1/DTD/svg11.dtd">
<!-- Creator: CorelDRAW 2020 (64 Bit) -->
<svg xmlns="http://www.w3.org/2000/svg" xml:space="preserve" width="635.706mm" height="48.6667mm" version="1.1" style="shape-rendering:geometricPrecision; text-rendering:geometricPrecision; image-rendering:optimizeQuality; fill-rule:evenodd; clip-rule:evenodd"
viewBox="0 0 23676.26 1812.55"
 xmlns:xlink="http://www.w3.org/1999/xlink"
 xmlns:xodm="http://www.corel.com/coreldraw/odm/2003">
 <defs>
  <style type="text/css">
   <![CDATA[
    .fil0 {fill:#010101}
    .fil1 {fill:#FAFEFD}
   ]]>
  </style>
 </defs>
 <g id="Camada_x0020_1">
  <metadata id="CorelCorpID_0Corel-Layer"/>
  <g id="_2702435690576">
   <path class="fil0" d="M18657.21 413.84c0,247.73 -44.07,416.98 172.59,576.33 95.53,70.26 175.08,133.23 299.79,133.8l1157.46 -1.24c278.81,1.54 224.31,224.22 65.32,237.36l-1604.33 -1.38c-122.4,-0.95 -90.83,-23.71 -90.83,408.44 0,30.28 9.14,39.42 39.42,39.42l1957.69 0c60.14,0 173.75,-75.07 231.86,-109.75 22.39,-13.36 16.29,-9.71 31.29,-21.27l84.4 -86.41c114.79,-145.33 99.18,-244.6 99.18,-413.24 0,-143.82 -134.19,-314.56 -268.67,-388.27 -149.38,-81.87 -29.45,-33.11 -169.39,-67.11 -229.94,-55.87 -875.37,-31.11 -1164.89,-30.74 -221.83,0.28 -236.49,3.49 -236.49,-118.25 0,-84.88 117.55,-79.73 157.25,-79.25 312,3.79 1545.12,16.15 1669.05,-12.73 7.36,-88.5 61.63,-473 -52.56,-473l-1800.03 0c-43.4,0 -48.86,14.6 -92.85,25.4 -104.45,25.66 -175.14,32.77 -268.06,99.83 -73.61,53.13 -110.2,78.74 -157.64,157.69 -1.49,2.48 -3.25,5.92 -4.73,8.41 -31.7,53.48 -54.83,64.46 -54.83,115.97z"/>
   <path class="fil0" d="M-0 59.09l0 1708.05c0,30.28 9.14,39.42 39.42,39.42l512.41 0c30.76,0 52.56,-21.8 52.56,-52.56l0 -919.72c35.87,24.02 52.87,59.59 87.08,96.86l508.91 581.62c46.42,56.42 37.69,75.92 126.65,122.99 89.75,-47.49 276.85,-298.61 364.82,-397.24l103.2 -120.16c21.06,-20.94 4.54,-1.65 25.61,-26.94 45.41,-54.52 186.46,-228.64 229.01,-257.13l-0 762.06c-0.18,262.7 -88.43,210.22 564.97,210.22 30.28,0 39.42,-9.14 39.42,-39.42l0 -1708.05c0,-30.75 -21.8,-52.56 -52.56,-52.56l-499.28 0c-71.63,0 -380.38,414.65 -476.36,509.06l-272.55 331.83c-74.27,-1.65 -33.34,9.36 -66.65,-25.33l-129.1 -146.82c-1.91,-1.91 -4.82,-4.51 -6.68,-6.46l-149.4 -179.07c-22.7,-26.06 -24.91,-27.71 -47.88,-57.23l-188.11 -219.19c-251.89,-258.71 -35.68,-206.79 -712.94,-206.79 -30.75,0 -52.56,21.8 -52.56,52.56z"/>
   <path class="fil0" d="M16686.38 492.67c67.9,-14.38 816.53,1.46 1012.05,-0.35 103.51,-0.96 147.2,-0.08 194.93,107.27 20.97,47.16 14.93,-49.06 14.93,103.31 0,87.48 -102.08,170.81 -183.94,170.81l-946 -6.5c-98.57,0.21 -92.7,44.88 -91.97,-177.46l-0.01 -197.07zm-604.39 -433.58l0 1708.05c0,30.28 9.14,39.42 39.42,39.42l512.41 0c85.31,0 52.56,-184.03 52.56,-367.89 0,-148.18 -141.81,-105.11 775.19,-105.11 49.15,0 77.14,85.53 106.9,129.6l208.46 303.96c19.21,27.13 31.37,39.44 78.81,39.44l617.53 0c88.34,0 11.76,-87.24 4.37,-96.34 -47.97,-59.04 -44.02,-72.43 -77.38,-119.7l-202.91 -296.37c156.4,-104.73 197.71,-121.82 285.38,-279.59 70.05,-126.07 43.1,-322.69 43.1,-521.88 0,-128.86 -104.13,-275.27 -221.09,-357.02l-65.2 -39.92c-2.57,-1.42 -6.06,-3.09 -8.58,-4.55 -118.7,-69.05 -11.79,-26.04 -189.77,-59.87 -48.57,-9.23 -63.59,-24.78 -119.75,-24.78l-1786.89 0c-30.75,0 -52.56,21.8 -52.56,52.56z"/>
   <path class="fil0" d="M22769.68 1359.84c-125.99,0 -645.73,15.58 -732.73,-16.19l-91.26 -40.13c-47.29,-24.63 -108.87,-123.18 -108.87,-140.77l0 -486.14 69.83 -114.12c29.8,-31.34 81.66,-69.82 127.26,-69.82l840.89 0c17.18,0 116.38,60.15 138.53,97.97 13.38,22.84 24.94,63.11 31.17,87.08 8.31,32 8.02,29.6 14.44,51.26 9.53,32.12 12.95,-8.69 12.95,52.75 0,147.29 24.92,368.72 -81.45,483.52 -28.46,30.71 -51.04,48.51 -90.83,66.84 -40.52,18.66 -71.79,27.75 -129.91,27.75zm-1537.25 -946l0 998.55c0,111.04 187.45,301.46 289.04,341.63 73.97,29.25 85.88,52.54 157.68,52.54l1524.11 0c59.43,0 94.63,-25.29 167.15,-56.21 26.22,-11.18 0.56,2.68 33.99,-18.57 13.02,-8.28 23.96,-15.87 39.72,-25.97 36.1,-23.15 34.57,-25.77 67.21,-51.04 77.64,-60.1 164.92,-207.17 164.92,-294.94l0 -867.16c0,-47.81 -42.73,-160.96 -64.37,-198.41 -5.2,-9.01 -46.47,-60.24 -57.71,-73.67 -52.16,-62.29 -189.46,-156.16 -248.94,-171.5 -35.19,-9.07 -76.72,-10.76 -113.62,-17.77 -48.57,-9.23 -63.59,-24.78 -119.75,-24.78l-1248.19 0c-46.26,0 -58.22,9.88 -97.88,20.37 -46.31,12.25 -65.18,12.24 -112.37,19.02 -87.4,12.55 -265.89,149.61 -319,232.84 -27.07,42.41 -62,93.35 -62,135.08z"/>
   <path class="fil0" d="M10721.33 59.09c0,51.11 40.78,77.96 62.44,121.5l773.63 1315.45c13.55,22.14 16.42,29.88 29.37,49.46l63.35 107.46c16.1,25.36 2.4,1.52 14.53,24.89 20.78,40.07 53.52,128.71 107.79,128.71 88.15,0 539.69,22.6 584.32,-20.07 1.17,-1.11 13.92,-21.85 15.2,-24.22l112.63 -189.56c11.68,-23.08 18.23,-32.03 33.67,-58.3 15.02,-25.55 17.01,-33.42 33.44,-58.53 16.66,-25.45 20.49,-29.55 35.34,-56.63l45.47 -72.78c8.99,-16.18 7.97,-18.76 16.85,-35.7l92.97 -156.67c8.65,-14.35 5.96,-11.3 14.55,-24.86l148.13 -259.18c15.05,-29 11.84,-18.84 30.72,-48.11l131.39 -223.36c15.2,-27.4 18.01,-25.08 36.26,-55.71l64.42 -106.39c11.67,-23.08 18.22,-32.03 33.67,-58.3 15.03,-25.57 16.99,-33.4 33.45,-58.53 23.29,-35.57 212.33,-293.13 87.9,-293.13l-564.97 0c-84.41,0 -107.54,75.68 -142.18,133.74l-334.75 571.83c-11.05,17.28 -10.38,12.9 -21.57,30.98l-128.26 213.35c-35.61,58.07 -42.14,104.64 -95.88,140.63l-83.43 -139.93c-28.29,-51.96 -52.36,-91.35 -83.44,-139.92l-80.05 -143.31c-22.45,-38.61 -1.97,-3.14 -21.41,-31.14 -11.75,-16.92 -12.06,-17.45 -20.64,-31.92l-227.74 -389.79c-181.18,-279.29 -21.44,-214.52 -744.62,-214.52 -30.76,0 -52.56,21.8 -52.56,52.56z"/>
   <path class="fil0" d="M7935.89 1754.01c0,32.91 1.33,52.56 39.42,52.56l617.53 0c43.74,0 44.18,-30.48 60.19,-58.06 1.46,-2.51 3.24,-5.93 4.73,-8.41 1.47,-2.45 3.56,-5.66 5.07,-8.07 1.5,-2.39 3.81,-5.45 5.34,-7.81 14.23,-21.99 2.76,-0.68 20.74,-31.81l156.96 -263.48c8.67,-16.61 8.03,-19.81 16.89,-35.67 73.25,-131.1 352.98,-561.17 373.9,-650.94 55.77,12.99 38.66,4.56 60.75,44.36 1.46,2.63 2.64,6.41 4.03,9.11l193.93 331.62c14.75,23.21 4.61,5.68 18.73,33.83 5.75,11.47 7.47,18.01 17.61,34.95l325.23 541.93c21.1,26.27 32.14,42.08 49.8,68.45l670.08 0c11.99,-51.44 18.62,-17.83 1.46,-54.78l-38.34 -52.7c-24.28,-44.34 -38.22,-75.87 -64.11,-120.01l-272.96 -462.82c-2.79,-4.62 -15.81,-22.7 -16.16,-23.26l-67.39 -116.56c-1.49,-2.47 -3.26,-5.92 -4.74,-8.39l-48.66 -82.73c-9.97,-19.88 -3.38,-9.08 -13.5,-25.92l-155.45 -265c-18.02,-34.56 -16.34,-24.94 -35.61,-56.36 -7.89,-12.86 -6.44,-12.2 -14.32,-25.09l-122.48 -205.99c-14.93,-22.37 -3.25,-1.72 -16.16,-23.26 -210.66,-351.3 -76.28,-277.17 -655.69,-277.17 -69.62,0 -85.83,10.17 -114.89,55.91l-168.3 278.42c-17.96,31.46 -17.07,21.26 -35.51,56.46 -15.84,30.22 -7.56,21.87 -26.84,52 -140.18,219.05 -266.25,452.79 -401,676.39l-262.78 446.72c-1.49,2.47 -3.26,5.92 -4.74,8.39 -11.15,18.48 -0.28,1.55 -15.06,24.36l-52.69 91.84c-16.48,23.66 -34.98,21.81 -34.98,56.99z"/>
   <path class="fil0" d="M5360.66 59.09l0 381.03c0,30.76 21.8,52.56 52.56,52.56l854.03 0 0 1261.33c0,30.75 21.8,52.56 52.56,52.56 678.12,0 551.8,64.37 551.83,-275.92l0 -998.55c0,-64.14 135.7,-39.46 197.08,-39.42 174.48,0.13 605.06,14.25 722.64,-13.14 27.14,-116.5 13.14,-259.26 13.14,-381.03 0,-44.28 -23.22,-91.97 -65.69,-91.97l-2325.58 0c-30.76,0 -52.56,21.8 -52.56,52.56z"/>
   <path class="fil0" d="M2785.44 59.09l0 381.03c0,30.76 21.8,52.56 52.56,52.56l2312.44 0c35.49,0 36.23,-6.28 65.69,-13.14 7.37,-88.5 61.63,-473 -52.56,-473l-2325.58 0c-30.76,0 -52.56,21.8 -52.56,52.56z"/>
   <path class="fil0" d="M13506.77 59.09l0 381.03c0,30.76 21.8,52.56 52.56,52.56l2312.44 0c35.49,0 36.23,-6.28 65.69,-13.14 7.36,-88.5 61.63,-473 -52.56,-473l-2325.58 0c-30.76,0 -52.56,21.8 -52.56,52.56z"/>
   <path class="fil0" d="M2785.44 1399.26l0 367.89c0,30.28 9.14,39.42 39.42,39.42l2351.86 0c30.76,0 52.56,-21.8 52.56,-52.56l0 -341.61c0,-30.75 -21.8,-52.56 -52.56,-52.56l-2351.86 0c-30.28,0 -39.42,9.14 -39.42,39.42z"/>
   <path class="fil0" d="M13506.77 742.31l0 341.61c0,30.28 9.14,39.42 39.42,39.42l2351.86 0c83.54,0 52.56,-167.93 52.56,-341.61 0,-44.28 -23.22,-91.97 -65.69,-91.97l-2325.58 0c-30.76,0 -52.56,21.8 -52.56,52.56z"/>
   <path class="fil0" d="M2785.44 768.59l0 315.33c0,30.28 9.14,39.42 39.42,39.42l2351.86 0c83.54,0 52.56,-167.93 52.56,-341.61 0,-44.28 -23.22,-91.97 -65.69,-91.97l-2325.58 0c-40.39,0 -52.56,38.49 -52.56,78.83z"/>
   <path class="fil0" d="M13521.5 1791.93l2402.82 2.34c45.69,-27.66 26.28,-100.6 26.28,-211.07 0,-123.55 19.93,-177.16 -26.28,-210.92l-2404.26 1.73 1.44 417.92z"/>
   <path class="fil1" d="M13521.5 1791.93c17.88,27.89 47.8,14.91 129.79,14.63 723.24,-2.43 1495.39,11.42 2208.19,0.79l64.85 -13.08 -2402.82 -2.34 -1.44 -417.92 2404.26 -1.73 -64.85 -13.25c-731.09,-11.05 -1510.3,9.31 -2247.78,0.62 -91.75,-1.08 -105.81,-17.17 -105.69,78.26 0.07,54.37 -20.17,315.58 15.49,354.01z"/>
  </g>
 </g>
</svg>
